<?xml version="1.0" encoding="iso-8859-1"?>
<!-- Generator: Adobe Illustrator 19.0.0, SVG Export Plug-In . SVG Version: 6.00 Build 0)  -->
<svg version="1.1" id="Layer_1" xmlns="http://www.w3.org/2000/svg" xmlns:xlink="http://www.w3.org/1999/xlink" x="0px" y="0px"
	 viewBox="0 0 496.159 496.159" style="enable-background:new 0 0 496.159 496.159;" xml:space="preserve">
<path style="fill:#fff;" d="M248.083,0.003C111.071,0.003,0,111.063,0,248.085c0,137.001,111.07,248.07,248.083,248.07
	c137.006,0,248.076-111.069,248.076-248.07C496.159,111.062,385.089,0.003,248.083,0.003z"/>
<g>
	<path style="fill:#fd7e14;" d="M337.001,157.704C200.91,90.957,126.31,194.628,125.57,195.687
		c-5.724,8.184-3.729,19.406,4.425,25.168c3.168,2.242,6.814,3.318,10.428,3.318c5.68,0,11.286-2.658,14.832-7.627
		c1.962-2.741,41.81-56.831,118.514-42.465c-8.47,9.93-13.599,22.792-13.599,36.836c0,31.348,25.499,56.848,56.848,56.848
		c31.348,0,56.849-25.5,56.849-56.848C373.866,186.601,358.517,165.811,337.001,157.704z M317.017,231.481
		c-11.338,0-20.565-9.226-20.565-20.563c0-11.342,9.228-20.566,20.565-20.566c2.218,0,4.351,0.363,6.354,1.016
		c0.472,0.196,0.946,0.369,1.424,0.522c7.493,3.074,12.788,10.44,12.788,19.028C337.582,222.255,328.356,231.481,317.017,231.481z"
		/>
	<path style="fill:#fd7e14;" d="M366.166,275.292c-8.143-5.764-19.457-3.818-25.261,4.307
		c-1.961,2.743-41.809,56.834-118.513,42.467c8.471-9.93,13.6-22.792,13.6-36.836c0-31.348-25.501-56.85-56.849-56.85
		s-56.85,25.502-56.85,56.85c0,24.322,15.356,45.117,36.88,53.22c33.097,16.231,62.551,22.392,88.195,22.392
		c79.795,0,122.662-59.58,123.223-60.383C376.315,292.278,374.319,281.052,366.166,275.292z M179.144,305.795
		c-2.218,0-4.35-0.363-6.353-1.016c-0.468-0.194-0.938-0.366-1.413-0.519c-7.499-3.072-12.8-10.441-12.8-19.031
		c0-11.338,9.227-20.565,20.565-20.565s20.564,9.228,20.564,20.565S190.482,305.795,179.144,305.795z"/>
</g>
</svg>
