<?xml version="1.0" encoding="iso-8859-1"?>
<!-- Generator: Adobe Illustrator 19.0.0, SVG Export Plug-In . SVG Version: 6.00 Build 0)  -->
<svg version="1.1" id="Layer_1" xmlns="http://www.w3.org/2000/svg" xmlns:xlink="http://www.w3.org/1999/xlink" x="0px" y="0px"
	 viewBox="0 0 496.158 496.158" style="enable-background:new 0 0 496.158 496.158;" xml:space="preserve">
<path style="fill:#fff;" d="M248.082,0.003C111.07,0.003,0,111.063,0,248.085c0,137.001,111.07,248.07,248.082,248.07
	c137.006,0,248.076-111.069,248.076-248.07C496.158,111.062,385.088,0.003,248.082,0.003z"/>
<path style="fill:#20c997;" d="M416.385,217.536c-11.682-13.736-28.711-21.58-49.783-22.708
	c-17.061-0.452-46.537,6.977-63.617,33.493c-1.754-8.882-3.242-17.566-4.574-25.338c-3.725-21.732-6.664-38.895-12.283-49.757
	c-26.373-50.958-65.846-46.041-81.613-41.558c-12.106,3.444-24.619,10.662-34.18,19.521c-11.787-11.147-25.097-18.07-39.779-20.646
	c-32.643-5.736-58.422,12.591-61.252,14.699c-8.037,5.98-9.707,17.343-3.723,25.384c5.982,8.03,17.346,9.696,25.385,3.72
	c0.15-0.109,15.924-11.129,33.316-8.066c10.746,1.887,20.697,8.938,29.629,20.986v118.869c0,10.02,8.119,18.143,18.141,18.143
	c10.02,0,18.141-8.123,18.141-18.143V163.208c3.172-5.156,16.994-17.391,32.082-17.926c12.436-0.336,22.949,7.848,31.631,24.62
	c3.033,5.861,6.066,23.575,8.744,39.206c4.918,28.717,10.576,61.741,23.283,86.8c-2.551,9.39-6.221,18.132-11.186,23.35
	c-19.428,13.221-52.311,31.264-67.408,31.589c-10.018,0.217-17.961,8.516-17.746,18.531c0.217,9.881,8.293,17.748,18.133,17.748
	c0.131,0,0.266,0,0.4-0.002c31.652-0.688,79.299-32.518,88.529-38.893c0.75-0.52,1.467-1.098,2.133-1.729
	c5.779-5.445,10.367-12.18,14.014-19.419c2.215,1.342,4.535,2.535,6.971,3.571c0.346,0.145,0.697,0.281,1.051,0.406
	c5.295,1.871,52.668,17.665,85.461-3.133c11.016-6.982,24.732-21.049,27.51-48.312C434.201,275.835,437.174,241.976,416.385,217.536
	z M397.705,275.831c-1.418,13.937-6.846,18.901-10.805,21.428c-14.912,9.501-43.705,3.025-53.443-0.22
	c-3.305-1.524-6.303-4.117-9.035-7.538c1.783-10.486,2.268-18.943,2.396-22.355c5.102-34.421,33.412-36.063,38.373-36.063
	c10.574,0.569,18.248,3.795,23.461,9.852C397.818,251.587,398.297,269.731,397.705,275.831z"/>

</svg>
