<?xml version="1.0" encoding="iso-8859-1"?>
<!-- Generator: Adobe Illustrator 19.0.0, SVG Export Plug-In . SVG Version: 6.00 Build 0)  -->
<svg version="1.1" id="Layer_1" xmlns="http://www.w3.org/2000/svg" xmlns:xlink="http://www.w3.org/1999/xlink" x="0px" y="0px"
	 viewBox="0 0 496.159 496.159" style="enable-background:new 0 0 496.159 496.159;" xml:space="preserve">
<path style="fill:#fff;" d="M248.083,0.003C111.071,0.003,0,111.063,0,248.085c0,137.001,111.07,248.07,248.083,248.07
	c137.006,0,248.076-111.069,248.076-248.07C496.159,111.062,385.089,0.003,248.083,0.003z"/>
<path style="fill:#d63384;" d="M364.147,320.799c-0.49-10.006-8.923-17.613-19.015-17.228c-10.005,0.492-17.719,9.009-17.227,19.013
	c0.247,5.024-1.041,16.736-5.142,21.045c-0.542,0.565-1.282,1.346-3.951,1.346c-10.662,0-17.946-2.201-21.657-6.545
	c-4.275-5.01-5.471-15.098-3.358-28.41c2.382-15.012,8.994-24.111,18.146-36.711c4.156-5.719,8.869-12.203,13.355-19.688
	c14.916-24.859,22.878-41.053,13.024-84.69c-0.645-2.853-7.02-28.275-32.024-43.459c-18.911-11.483-42.494-13.62-70.107-6.37
	c-40.793,10.723-50.224,59.471-48.994,98.171c-30.854,2.372-55.242,28.221-55.242,59.671c0,33.009,26.858,59.867,59.868,59.867
	c33.009,0,59.866-26.858,59.866-59.867c0-21.075-10.959-39.63-27.467-50.301c-1.792-21.996-1.277-66.543,21.193-72.448
	c17.524-4.605,31.552-3.898,41.704,2.083c12.26,7.23,15.807,20.649,15.813,20.649c7.13,31.571,3.129,38.241-8.744,58.03
	c-3.668,6.112-7.7,11.659-11.602,17.023c-10.264,14.135-20.881,28.744-24.626,52.355c-3.908,24.662-0.006,44.062,11.605,57.658
	c10.916,12.782,27.484,19.265,49.247,19.265c11.924,0,22.376-4.362,30.232-12.612C365.178,351.695,364.298,323.91,364.147,320.799z
	 M191.823,300.526c-13.005,0-23.585-10.58-23.585-23.583c0-13.004,10.58-23.582,23.585-23.582c13.003,0,23.582,10.578,23.582,23.582
	C215.405,289.946,204.826,300.526,191.823,300.526z"/>

</svg>
