<?xml version="1.0" encoding="iso-8859-1"?>
<!-- Generator: Adobe Illustrator 19.0.0, SVG Export Plug-In . SVG Version: 6.00 Build 0)  -->
<svg version="1.1" id="Layer_1" xmlns="http://www.w3.org/2000/svg" xmlns:xlink="http://www.w3.org/1999/xlink" x="0px" y="0px"
	 viewBox="0 0 496.158 496.158" style="enable-background:new 0 0 496.158 496.158;" xml:space="preserve">
<path style="fill:#fff;" d="M248.082,0.003C111.07,0.003,0,111.063,0,248.085c0,137.001,111.07,248.07,248.082,248.07
	c137.006,0,248.076-111.069,248.076-248.07C496.158,111.062,385.088,0.003,248.082,0.003z"/>
<path style="fill:#fd7e14;" d="M352.695,230.714h-51.632c7.229-38.204,35.15-64.617,35.692-65.121
	c7.359-6.762,7.865-18.21,1.123-25.594c-6.756-7.401-18.23-7.916-25.629-1.165c-1.775,1.62-40.546,37.615-47.957,91.88h-32.65
	c-7.412-54.266-46.184-90.261-47.957-91.88c-7.374-6.737-18.799-6.222-25.563,1.14c-6.768,7.357-6.281,18.822,1.053,25.611
	c0.318,0.297,28.436,26.769,35.695,65.129h-51.408c-10.022,0-18.143,8.122-18.143,18.142c0,10.021,8.12,18.141,18.143,18.141h51.264
	c-4.395,21.892-16.591,43.492-36.445,64.454c-6.891,7.273-6.578,18.757,0.697,25.646c3.508,3.323,7.992,4.97,12.472,4.97
	c4.81,0,9.61-1.898,13.174-5.665c26.795-28.289,42.511-58.273,46.936-89.405h32.816c4.425,31.131,20.142,61.116,46.936,89.405
	c3.563,3.767,8.365,5.665,13.173,5.665c4.479,0,8.965-1.647,12.474-4.97c7.272-6.89,7.585-18.373,0.694-25.646
	c-19.854-20.962-32.05-42.562-36.445-64.454h51.488c10.021,0,18.143-8.12,18.143-18.141
	C370.838,238.836,362.717,230.714,352.695,230.714z"/>

</svg>
