<?xml version="1.0" encoding="iso-8859-1"?>
<!-- Generator: Adobe Illustrator 19.0.0, SVG Export Plug-In . SVG Version: 6.00 Build 0)  -->
<svg version="1.1" id="Layer_1" xmlns="http://www.w3.org/2000/svg" xmlns:xlink="http://www.w3.org/1999/xlink" x="0px" y="0px"
	 viewBox="0 0 496.159 496.159" style="enable-background:new 0 0 496.159 496.159;" xml:space="preserve">
<path style="fill:#fff;" d="M248.083,0.003C111.071,0.003,0,111.063,0,248.085c0,137.001,111.07,248.07,248.083,248.07
	c137.006,0,248.076-111.069,248.076-248.07C496.159,111.062,385.089,0.003,248.083,0.003z"/>
<path style="fill:#20c997;" d="M410.208,241.938c3.31-30.04-1.804-51.242-15.633-64.819c-14.946-14.674-35.307-15.625-52.284-14.207
	v-11.4c0-21.317-19.481-36.206-47.374-36.206c-15.038,0-29.52,4.33-40.776,12.199c-0.252,0.176-0.486,0.365-0.733,0.544
	c-25.782-13.908-47.895-16.378-65.778-7.319c-3.73,1.89-6.993,4.157-9.868,6.649c-25.062-13.201-46.448-15.305-63.65-6.212
	c-26.041,13.765-28.86,46.23-29.094,49.886c-0.646,9.946,6.863,18.476,16.803,19.191c9.874,0.739,18.602-6.785,19.396-16.721
	c0.41-5.165,3.376-16.921,9.917-20.314c5.273-2.729,14.537-1.106,26.11,4.444v154.866c0,10.021,8.121,18.14,18.142,18.14
	s18.143-8.118,18.143-18.14V171.673c0.578-3.806,3.474-15.019,10.501-18.579c5.734-2.9,15.527-1.226,27.597,4.561v154.863
	c0,10.021,8.121,18.14,18.142,18.14c10.02,0,18.141-8.118,18.141-18.14V170.637c0-0.026,0.004-0.052,0.004-0.078
	c0-2.965,0-10.845,11.781-15.94c10.655-4.607,22.277-3.109,26.315-1.011v158.91c0,0.542,0.025,1.084,0.076,1.621
	c0.104,1.156,0.538,4.545,2.239,9.067c-15.01,10.67-29.204,18.741-38.343,23.173c-9.011,4.36-12.788,15.203-8.429,24.221
	c3.128,6.476,9.602,10.253,16.349,10.253c2.644,0,5.331-0.58,7.877-1.811c1.977-0.954,22.642-11.091,46.617-28.471
	c11.715,7.047,28.627,12.784,53.062,14.511c0.436,0.032,0.868,0.047,1.297,0.047c9.436,0,17.4-7.304,18.078-16.862
	c0.709-9.991-6.821-18.671-16.816-19.376c-10.303-0.729-18.316-2.262-24.546-4.158C386.527,302.489,406.641,274.325,410.208,241.938
	z M342.291,294.63v-95.274c10.499-1.087,21.797-1.321,26.864,3.656c2.981,2.924,7.591,11.352,4.989,34.951
	C371.907,258.278,358.844,277.762,342.291,294.63z"/>

</svg>
