<?xml version="1.0" encoding="iso-8859-1"?>
<!-- Generator: Adobe Illustrator 19.0.0, SVG Export Plug-In . SVG Version: 6.00 Build 0)  -->
<svg version="1.1" id="Layer_1" xmlns="http://www.w3.org/2000/svg" xmlns:xlink="http://www.w3.org/1999/xlink" x="0px" y="0px"
	 viewBox="0 0 496.159 496.159" style="enable-background:new 0 0 496.159 496.159;" xml:space="preserve">
<path style="fill:#fff;" d="M248.083,0.003C111.071,0.003,0,111.063,0,248.085c0,137.001,111.07,248.07,248.083,248.07
	c137.006,0,248.076-111.069,248.076-248.07C496.159,111.062,385.089,0.003,248.083,0.003z"/>
<path style="fill:#d63384;" d="M400.609,195.392c-1.138-20.629-10.673-38.767-28.34-53.911
	c-10.754-9.223-44.118-25.034-78.583-15.119c-13.974,4.027-31.278,13.373-45.606,34.498c-14.327-21.125-31.632-30.471-45.605-34.498
	c-34.461-9.927-67.826,5.904-78.583,15.119c-17.667,15.145-27.202,33.282-28.34,53.911c-2.125,38.598,27.451,70.689,28.713,72.036
	c6.841,7.31,18.322,7.703,25.642,0.854c7.317-6.846,7.7-18.326,0.854-25.642c-0.202-0.216-20.243-22.32-18.98-45.252
	c0.58-10.509,5.722-19.785,15.725-28.36c3.837-3.288,24.808-13.599,44.924-7.798c16.547,4.766,29.091,19.785,37.312,44.648
	l0.199,100.494l-0.096,48.407c-0.021,10.02,8.085,18.155,18.106,18.176h0.036c0.032,0,0.063-0.004,0.096-0.005
	c0.032,0,0.063,0.005,0.095,0.005h0.037c10.02-0.021,18.126-8.156,18.105-18.176l-0.096-48.447l0.198-100.454
	c8.221-24.863,20.764-39.882,37.311-44.648c20.105-5.791,41.089,4.514,44.925,7.798c9.957,8.536,15.098,17.766,15.715,28.214
	c1.357,22.95-18.678,45.075-19.017,45.447c-6.796,7.32-6.399,18.761,0.9,25.593c7.32,6.842,18.797,6.456,25.642-0.854
	C373.158,266.081,402.734,233.991,400.609,195.392z"/>
</svg>
