<?xml version="1.0" encoding="iso-8859-1"?>
<!-- Generator: Adobe Illustrator 19.0.0, SVG Export Plug-In . SVG Version: 6.00 Build 0)  -->
<svg version="1.1" id="Layer_1" xmlns="http://www.w3.org/2000/svg" xmlns:xlink="http://www.w3.org/1999/xlink" x="0px" y="0px"
	 viewBox="0 0 496.158 496.158" style="enable-background:new 0 0 496.158 496.158;" xml:space="preserve">
<path style="fill:#fff;" d="M248.082,0.003C111.07,0.003,0,111.063,0,248.085c0,137.001,111.07,248.07,248.082,248.07
	c137.006,0,248.076-111.069,248.076-248.07C496.158,111.062,385.088,0.003,248.082,0.003z"/>
<g>
	<path style="fill:#6610f2;" d="M381.723,288.92H114.435c-10.021,0-18.143,8.121-18.143,18.142s8.121,18.143,18.143,18.143h267.287
		c10.02,0,18.143-8.121,18.143-18.143C399.865,297.041,391.742,288.92,381.723,288.92z"/>
	<path style="fill:#6610f2;" d="M381.723,224.822h-42.559c-7.807-48.733-46.491-85.868-92.898-85.868s-85.09,37.135-92.896,85.868
		h-38.934c-10.021,0-18.143,8.121-18.143,18.143c0,10.02,8.121,18.14,18.143,18.14h267.287c10.02,0,18.143-8.12,18.143-18.14
		C399.865,232.943,391.742,224.822,381.723,224.822z M190.346,224.822c6.817-28.558,29.297-49.584,55.92-49.584
		c26.625,0,49.104,21.026,55.92,49.584H190.346z"/>
</g>
</svg>
