<?xml version="1.0" encoding="iso-8859-1"?>
<!-- Generator: Adobe Illustrator 19.0.0, SVG Export Plug-In . SVG Version: 6.00 Build 0)  -->
<svg version="1.1" id="Layer_1" xmlns="http://www.w3.org/2000/svg" xmlns:xlink="http://www.w3.org/1999/xlink" x="0px" y="0px"
	 viewBox="0 0 496.158 496.158" style="enable-background:new 0 0 496.158 496.158;" xml:space="preserve">
<path style="fill:#fff;" d="M248.082,0.003C111.07,0.003,0,111.063,0,248.085c0,137.001,111.07,248.07,248.082,248.07
	c137.006,0,248.076-111.069,248.076-248.07C496.158,111.062,385.088,0.003,248.082,0.003z"/>
<path style="fill:#d63384;" d="M373.102,125.781c-0.041-0.054-0.079-0.109-0.121-0.162c-0.172-0.216-0.351-0.425-0.531-0.632
	c-0.211-0.245-0.429-0.484-0.651-0.717c-0.102-0.105-0.201-0.211-0.305-0.313c-1.652-1.645-3.628-2.991-5.868-3.916
	c-2.737-1.13-5.637-1.537-8.464-1.294h-84.254c-10.021,0-18.143,8.123-18.143,18.145c0,10.019,8.121,18.14,18.143,18.14h42.09
	l-79.238,79.67l-31.121-30.953c-7.104-7.069-18.595-7.039-25.656,0.064c-7.065,7.108-7.034,18.594,0.067,25.658l31.123,30.956
	l-85.658,86.125c-7.065,7.105-7.032,18.592,0.067,25.658c3.539,3.52,8.167,5.279,12.795,5.279c4.659,0,9.318-1.783,12.862-5.348
	l85.66-86.127l31.056,30.889c3.541,3.521,8.167,5.277,12.795,5.277c4.659,0,9.319-1.783,12.862-5.348
	c7.064-7.104,7.034-18.592-0.067-25.656l-31.059-30.89l79.077-79.508v41.902c0,10.021,8.121,18.142,18.142,18.142
	s18.142-8.12,18.142-18.142v-84.302c0.04-0.492,0.075-0.986,0.075-1.489C376.922,132.7,375.487,128.853,373.102,125.781z"/>

</svg>
