<?xml version="1.0" encoding="iso-8859-1"?>
<!-- Generator: Adobe Illustrator 19.0.0, SVG Export Plug-In . SVG Version: 6.00 Build 0)  -->
<svg version="1.1" id="Layer_1" xmlns="http://www.w3.org/2000/svg" xmlns:xlink="http://www.w3.org/1999/xlink" x="0px" y="0px"
	 viewBox="0 0 496.158 496.158" style="enable-background:new 0 0 496.158 496.158;" xml:space="preserve">
<path style="fill:#fff;" d="M248.082,0.003C111.07,0.003,0,111.063,0,248.085c0,137.001,111.07,248.07,248.082,248.07
	c137.006,0,248.076-111.069,248.076-248.07C496.158,111.062,385.088,0.003,248.082,0.003z"/>
<path style="fill:#fd7e14;" d="M416.951,333.832c-11.195-14.479-22.407-28.948-33.601-43.427c-7.102-9.168-22.433-5.042-23.9,6.493
	c-0.277,2.19-1.403,11.03-2.796,21.952c-17.08,0.572-21.744-9.449-22.928-16.015V143.179c0-21.315-19.48-36.205-47.373-36.205
	c-15.038,0-29.52,4.328-40.777,12.2c-0.251,0.175-0.484,0.364-0.731,0.542c-25.784-13.908-47.899-16.375-65.779-7.318
	c-3.73,1.89-6.991,4.156-9.867,6.648c-25.063-13.202-46.449-15.301-63.652-6.211c-26.04,13.765-28.861,46.229-29.095,49.886
	c-0.642,9.946,6.864,18.473,16.803,19.189c9.847,0.698,18.602-6.788,19.396-16.719c0.41-5.165,3.376-16.922,9.917-20.316
	c5.269-2.732,14.538-1.105,26.11,4.444v154.868c0,10.02,8.121,18.14,18.142,18.14s18.142-8.12,18.142-18.14V163.342
	c0.578-3.805,3.475-15.019,10.503-18.581c5.729-2.9,15.53-1.226,27.596,4.561v154.866c0,10.02,8.12,18.14,18.142,18.14
	c10.02,0,18.142-8.12,18.142-18.14V162.306c0-0.026,0.004-0.051,0.004-0.077c0-2.965,0-10.848,11.78-15.943
	c10.654-4.605,22.284-3.111,26.316-1.008v158.91c0,0.69,0.039,1.38,0.116,2.063c2.29,19.942,18.693,47.319,54.475,48.842
	c-1.131,8.871-1.998,15.674-2.221,17.424c-0.178,0.817-0.264,1.646-0.264,2.454c-0.353,5.767,2.626,9.881,6.712,12.036
	c3.961,2.604,9.113,3.209,14.021-0.059c0.797-0.445,1.523-0.989,2.207-1.623c14.053-10.871,28.102-21.754,42.15-32.629
	C420.466,348.197,421.401,339.6,416.951,333.832z"/>

</svg>
