<?xml version="1.0" encoding="iso-8859-1"?>
<!-- Generator: Adobe Illustrator 19.0.0, SVG Export Plug-In . SVG Version: 6.00 Build 0)  -->
<svg version="1.1" id="Layer_1" xmlns="http://www.w3.org/2000/svg" xmlns:xlink="http://www.w3.org/1999/xlink" x="0px" y="0px"
	 viewBox="0 0 496.159 496.159" style="enable-background:new 0 0 496.159 496.159;" xml:space="preserve">
<path style="fill:#fff;" d="M248.083,0.003C111.071,0.003,0,111.063,0,248.085c0,137.001,111.07,248.07,248.083,248.07
	c137.006,0,248.076-111.069,248.076-248.07C496.159,111.062,385.089,0.003,248.083,0.003z"/>
<path style="fill:#20c997;" d="M372.626,115.081c-3.203-0.152-31.712-1.105-49.127,17.649l-52.473,52.473h-22.72
	c-0.017,0-0.034,0.002-0.051,0.002c-0.094,0-0.187,0.003-0.28,0.004c-0.041,0-0.081-0.006-0.122-0.006h-22.72l-52.472-52.473
	c-17.417-18.752-45.9-17.798-49.129-17.649c-10.002,0.528-17.688,9.066-17.16,19.074c0.528,9.999,8.972,17.653,19.073,17.16
	c3.816-0.202,15.885,0.886,20.693,6.18c0.194,0.213,0.393,0.421,0.599,0.623l45.128,45.128
	c-25.018,17.767-41.373,46.97-41.373,79.922c0,54.017,43.948,97.964,97.967,97.964c54.017,0,97.964-43.947,97.964-97.964
	c0-33.147-16.552-62.497-41.82-80.233l44.817-44.817c0.206-0.202,0.404-0.41,0.601-0.623c4.623-5.095,15.989-6.347,20.794-6.176
	c9.939,0.454,18.446-7.192,18.972-17.164C390.315,124.147,382.63,115.609,372.626,115.081z M310.141,283.167
	c0,34.013-27.67,61.681-61.681,61.681c-34.013,0-61.682-27.668-61.682-61.681c0-34.012,27.669-61.681,61.682-61.681
	C282.471,221.486,310.141,249.155,310.141,283.167z"/>
</svg>
